<svg width="37" height="26" viewBox="0 0 37 26" fill="none" xmlns="http://www.w3.org/2000/svg">
<path d="M29.6016 17.408C27.1438 13.6687 24.7974 13.0493 23.753 13.2304C21.5305 13.0466 19.7843 14.7343 19.1785 15.6116C19.0532 15.7996 15.9007 19.5374 15.0427 22.2122C14.6876 23.3192 15.4605 26.0443 19.5128 25.408C20.8464 25.1986 21.1002 24.0712 23.8992 24.1548C26.6982 24.2383 25.8209 24.7814 27.6173 25.3454C29.4136 25.9093 32.3797 25.1574 32.4842 23.2566C32.5886 21.3558 32.0455 21.126 29.6016 17.408Z" fill="black"/>
<path d="M22.6318 4.70101C22.3478 0.974604 20.1253 -0.0405469 19.0809 0.00122589C17.8297 0.0512706 15.4673 1.72657 15.7179 5.53653C16.0312 10.299 18.6214 10.9047 19.4986 10.9047C20.3759 10.9047 22.9869 9.35902 22.6318 4.70101Z" fill="black"/>
<path d="M16.2195 10.4846C14.7294 7.84262 12.7625 7.72573 12.0873 8.20905C11.2686 8.79505 10.003 10.7334 11.4977 13.4481C13.3661 16.8415 15.4516 16.4065 16.0873 16.1084C16.723 15.8103 18.0822 13.7871 16.2195 10.4846Z" fill="black"/>
<path d="M23.939 4.70223C24.223 0.975825 26.4455 -0.0393262 27.4899 0.00244659C28.7411 0.0524913 31.1035 1.72779 30.8529 5.53775C30.5396 10.3002 27.9494 10.9059 27.0722 10.9059C26.1949 10.9059 23.5839 9.36024 23.939 4.70223Z" fill="black"/>
<path d="M30.351 10.4858C31.8411 7.84384 33.808 7.72695 34.4833 8.21027C35.3019 8.79627 36.5676 10.7346 35.0729 13.4493C33.2045 16.8427 31.1189 16.4077 30.4832 16.1096C29.8476 15.8115 28.4883 13.7883 30.351 10.4858Z" fill="black"/>
<rect x="5.03198" y="13.2213" width="2.46667" height="12.3333" fill="black"/>
<rect x="12.3333" y="18.056" width="2.46667" height="12.3333" transform="rotate(90 12.3333 18.056)" fill="black"/>
</svg>
