<svg width="41" height="44" viewBox="0 0 41 44" fill="none" xmlns="http://www.w3.org/2000/svg">
<path d="M39.5302 31.081C36.1008 37.7313 29.3566 41.8591 21.9349 41.8591C16.6709 41.8591 11.7925 39.7848 8.1859 36.0114C4.60013 32.2588 2.63004 27.2346 2.63004 21.8455C2.63004 16.4564 4.60013 11.4322 8.1859 7.6796C11.7925 3.9062 16.6813 1.83187 21.9349 1.83187C27.2406 1.83187 31.7228 3.84365 34.558 7.48155C37.2995 11.0048 38.1542 15.6225 36.9764 20.5008C35.8402 25.202 33.4844 27.3597 31.7123 28.3395C29.8882 29.3506 27.3552 29.7363 26.2503 28.7982C26.219 28.7669 26.1878 28.7356 26.1669 28.7043C26.0105 28.5063 25.9272 28.1415 25.9167 27.8183C25.9063 27.4952 25.9376 27.1199 26.021 26.703C26.1044 26.286 26.219 25.8274 26.3545 25.3792L30.3781 13.1938H28.1578L27.1155 15.9561C26.636 14.6948 26.0105 13.7879 25.2288 13.2459C24.447 12.6934 23.5922 12.4224 22.6749 12.4224C21.1948 12.4224 19.8397 12.7872 18.6201 13.5065C17.3901 14.2257 16.3477 15.1639 15.4825 16.3313C14.6174 17.4988 13.9502 18.8122 13.4708 20.2611C12.9913 21.71 12.7619 23.1693 12.7619 24.6286C12.7619 25.473 12.887 26.2652 13.1372 26.9948C13.3874 27.7245 13.7522 28.3708 14.2213 28.9337C14.6903 29.4965 15.2741 29.9448 15.962 30.2679C16.65 30.591 17.4214 30.7578 18.2865 30.7578C19.3498 30.7578 20.34 30.4764 21.2573 29.8822C22.1746 29.2881 22.9564 28.621 23.6027 27.9955H23.686C23.7694 28.9337 24.176 29.6112 24.7076 30.0907C24.9786 30.3304 25.3643 30.5598 25.8646 30.7266V30.737C28.064 31.4875 30.253 31.0497 32.515 29.7988C34.5789 28.6522 37.3203 26.1818 38.592 20.8865C39.895 15.5078 38.9256 10.3794 35.861 6.43917C32.713 2.39475 27.7617 0.164062 21.9349 0.164062C16.2226 0.164062 10.9169 2.42602 6.99759 6.52256C3.10953 10.5878 0.972656 16.029 0.972656 21.8455C0.972656 27.662 3.10953 33.1032 6.99759 37.1684C10.9169 41.2754 16.2331 43.5269 21.9349 43.5269C29.9716 43.5269 37.2786 39.0551 40.9999 31.8523L39.5302 31.081ZM23.8528 25.0143C23.217 26.0359 22.4665 26.8906 21.6117 27.5994C20.757 28.2978 19.8397 28.6522 18.839 28.6522C17.8175 28.6522 16.9731 28.277 16.306 27.5369C15.6389 26.7864 15.3053 25.7753 15.3053 24.4827C15.3053 23.482 15.4721 22.398 15.8161 21.2305C16.1601 20.0735 16.65 18.9894 17.2859 17.9991C17.9217 17.0089 18.6931 16.1854 19.5895 15.5287C20.486 14.872 21.4762 14.5384 22.5499 14.5384C22.9772 14.5384 23.3838 14.6531 23.7903 14.8824C24.1864 15.1117 24.5408 15.414 24.8535 15.7893C25.1662 16.1645 25.4268 16.5815 25.6249 17.061C25.8229 17.5301 25.9272 18.0304 25.9272 18.5412C25.9272 19.4897 25.7395 20.553 25.3747 21.7308C24.9994 22.8983 24.4887 23.9928 23.8528 25.0143Z" fill="black"/>
</svg>
