<svg width="41" height="41" viewBox="0 0 41 41" fill="none" xmlns="http://www.w3.org/2000/svg">
<path d="M38.1035 28.0428C35.3239 28.0428 32.655 27.5977 30.2096 26.8201C29.4311 26.5976 28.5418 26.7084 27.9862 27.3761L23.0933 32.268C16.7554 29.0439 11.6413 23.929 8.41641 17.5909L13.3093 12.6994C13.8649 12.1434 14.0869 11.2541 13.8649 10.4756C12.9751 7.91861 12.5307 5.2495 12.5307 2.4698C12.5307 1.24709 11.53 0.246094 10.3069 0.246094H2.52375C1.30073 0.246094 0.300049 1.24719 0.300049 2.4698C0.300049 23.3726 17.2007 40.2734 38.1035 40.2734C39.3262 40.2734 40.3273 39.2723 40.3273 38.0497V30.2665C40.3273 29.0438 39.3262 28.0428 38.1035 28.0428Z" fill="black"/>
</svg>
