<svg width="659" height="613" viewBox="0 0 659 613" fill="none" xmlns="http://www.w3.org/2000/svg">
<path d="M480.488 417.699C421.654 328.191 365.488 313.366 340.488 317.699C287.288 313.299 245.488 353.699 230.988 374.699C227.988 379.199 152.525 468.672 131.988 532.699C123.488 559.199 141.988 624.431 238.988 609.199C270.912 604.186 276.988 577.199 343.988 579.199C410.988 581.199 389.988 594.199 432.988 607.699C475.988 621.199 546.988 603.199 549.488 557.699C551.988 512.199 538.988 506.699 480.488 417.699Z" fill="black" stroke="black"/>
<path d="M313.647 113.529C306.847 24.3294 253.647 0.0294189 228.647 1.02934C198.697 2.22728 142.147 42.3293 148.147 133.529C155.647 247.529 217.647 262.029 238.647 262.029C259.647 262.029 322.147 225.029 313.647 113.529Z" fill="black" stroke="black"/>
<path d="M160.159 251.973C124.489 188.731 77.4069 185.933 61.2441 197.502C41.6471 211.529 11.3506 257.927 47.13 322.911C91.8541 404.14 141.777 393.727 156.993 386.591C172.21 379.455 204.746 331.025 160.159 251.973Z" fill="black" stroke="black"/>
<path d="M344.936 113.559C351.736 24.3588 404.936 0.0588379 429.936 1.05876C459.887 2.2567 516.436 42.3588 510.436 133.559C502.936 247.559 440.936 262.059 419.936 262.059C398.936 262.059 336.436 225.059 344.936 113.559Z" fill="black" stroke="black"/>
<path d="M498.425 252.002C534.094 188.76 581.177 185.962 597.339 197.531C616.936 211.559 647.233 257.957 611.453 322.94C566.729 404.169 516.807 393.757 501.59 386.62C486.373 379.484 453.838 331.054 498.425 252.002Z" fill="black" stroke="black"/>
</svg>
