<svg width="27" height="27" viewBox="0 0 27 27" fill="none" xmlns="http://www.w3.org/2000/svg">
<path d="M27 25.3617L19.0336 17.3883C20.4961 15.5602 21.375 13.2328 21.375 10.7016C21.375 4.78828 16.5867 0 10.6875 0C4.7812 0 0 4.79531 0 10.7016C0 16.6078 4.7883 21.4031 10.6875 21.4031C13.2328 21.4031 15.5672 20.5102 17.4023 19.0266L25.3617 27L27 25.3617ZM3.9234 17.4797C2.1164 15.6727 1.125 13.268 1.125 10.7086C1.125 8.14922 2.1234 5.74453 3.9234 3.9375C5.7234 2.13047 8.1352 1.125 10.6875 1.125C13.2398 1.125 15.6445 2.12344 17.4516 3.93047C19.2586 5.7375 20.25 8.14219 20.25 10.7016C20.25 13.2609 19.2516 15.6656 17.4516 17.4727C15.6445 19.2797 13.2398 20.2781 10.6875 20.2781C8.1352 20.2852 5.7305 19.2867 3.9234 17.4797Z" fill="black"/>
</svg>
