<svg width="41" height="41" viewBox="0 0 41 41" fill="none" xmlns="http://www.w3.org/2000/svg">
<path d="M1.86768 39.3097L4.56657 29.5055C2.90571 26.6385 2.0281 23.3767 2.0281 20.0491C2.0281 9.61514 10.5589 1.12695 21.0242 1.12695C26.1106 1.12695 30.8761 3.10095 34.4621 6.67295C38.048 10.2449 40.0203 15.0013 40.0203 20.0585C40.0203 30.4925 31.4895 38.9807 21.0242 38.9807H21.0148C17.8346 38.9807 14.711 38.1817 11.9366 36.6777L1.86768 39.3097Z" fill="url(#paint0_linear)"/>
<path d="M1.17871 39.9954L3.97198 29.8435C2.2545 26.8731 1.33913 23.4985 1.34857 20.0487C1.34857 9.2387 10.1813 0.449707 21.0335 0.449707C26.2992 0.449707 31.2441 2.4895 34.9527 6.1931C38.6707 9.89669 40.7185 14.8223 40.7091 20.0581C40.7091 30.8681 31.8763 39.6571 21.0241 39.6571H21.0147C17.7213 39.6571 14.4845 38.8299 11.6063 37.2695L1.17871 39.9954ZM12.097 33.7163L12.6915 34.0735C15.2017 35.5587 18.0799 36.3389 21.0147 36.3483H21.0241C30.0362 36.3483 37.3779 29.0445 37.3779 20.0581C37.3779 15.7059 35.6793 11.6169 32.5935 8.5337C29.5077 5.4505 25.3933 3.7585 21.0241 3.7585C12.0026 3.7585 4.66085 11.0623 4.66085 20.0487C4.66085 23.1225 5.5196 26.1211 7.16158 28.7155L7.54849 29.3359L5.89706 35.3425L12.097 33.7163Z" fill="white"/>
<path d="M16.108 11.8427C15.7399 11.0249 15.353 11.0061 15.0039 10.9967C14.7208 10.9873 14.3905 10.9873 14.0602 10.9873C13.7299 10.9873 13.2014 11.1095 12.7485 11.5983C12.2955 12.0871 11.031 13.2715 11.031 15.6873C11.031 18.0937 12.7957 20.4249 13.041 20.7539C13.2864 21.0829 16.4477 26.1871 21.4397 28.1517C25.5918 29.7873 26.4411 29.4583 27.3376 29.3737C28.2436 29.2891 30.2441 28.1893 30.6594 27.0425C31.0651 25.8957 31.0651 24.9181 30.9425 24.7113C30.8198 24.5045 30.4895 24.3823 29.9988 24.1379C29.5081 23.8935 27.0923 22.7091 26.6393 22.5399C26.1864 22.3707 25.8561 22.2955 25.5352 22.7843C25.2049 23.2731 24.2613 24.3729 23.9782 24.7019C23.6951 25.0309 23.4025 25.0685 22.9118 24.8241C22.4211 24.5797 20.8357 24.0627 18.9578 22.3895C17.4951 21.0923 16.5043 19.4849 16.2212 18.9961C15.9381 18.5073 16.1929 18.2441 16.4382 17.9997C16.6553 17.7835 16.9289 17.4263 17.1743 17.1443C17.4197 16.8623 17.5046 16.6555 17.665 16.3265C17.8254 15.9975 17.7499 15.7155 17.6273 15.4711C17.5046 15.2267 16.542 12.8109 16.108 11.8427Z" fill="white"/>
<defs>
<linearGradient id="paint0_linear" x1="20.9434" y1="39.307" x2="20.9434" y2="1.12482" gradientUnits="userSpaceOnUse">
<stop stop-color="#20B038"/>
<stop offset="1" stop-color="#60D66A"/>
</linearGradient>
</defs>
</svg>
